<svg width="2458" height="512" xmlns="http://www.w3.org/2000/svg">
 <g id="Layer_1">
  <title>Layer 1</title>
  <text stroke="#000" font-style="normal" font-weight="bold" xml:space="preserve" text-anchor="start" font-family="'Quicksand'" font-size="23" stroke-width="0" id="svg_10" y="87.89278" x="78.58316" fill="#4c4c4c" transform="matrix(12.0952 0 0 12.2062 -549.605 -727.344)">ducedesk</text>
  <path stroke="#000" id="svg_2" d="m9.04771,65.10523l0,0c0,-32.35391 19.45174,-58.58204 43.4468,-58.58204l19.74853,0l0,0l94.79298,0l177.73676,0c11.52279,0 22.5737,6.17204 30.72156,17.15834c8.14782,10.98627 12.72524,25.88685 12.72524,41.4237l0,146.45511l0,0l0,87.87307l0,0c0,32.35404 -19.45174,58.58204 -43.4468,58.58204l-177.73676,0l-123.83526,148.96056l29.04238,-148.96056l-19.74853,0c-23.99502,0 -43.4468,-26.228 -43.4468,-58.58204l0,0l0,-87.87307l0,0l0,-146.45511l-0.0001,0z" fill="#00cbff"/>
  <path stroke="#000" stroke-width="0" id="svg_3" d="m66.09585,115.79867l0,0c0,-20.1226 13.99939,-36.43518 31.26847,-36.43518l14.21297,0l0,0l68.22222,0l127.91666,0c8.29295,0 16.24625,3.83871 22.11022,10.6716c5.86394,6.83289 9.15825,16.10031 9.15825,25.76355l0,91.08794l0,0l0,54.65276l0,0c0,20.1226 -13.99939,36.43518 -31.26847,36.43518l-127.91666,0l-89.1239,92.64616l20.90168,-92.64616l-14.21297,0c-17.26909,0 -31.26847,-16.31258 -31.26847,-36.43518l0,0l0,-54.65276l0,0l0,-91.08794l0,0.00003z" fill="#4c4c4c"/>
 </g>

</svg>