<svg width="512" height="512" xmlns="http://www.w3.org/2000/svg">
 <g id="Layer_1">
  <title>Layer 1</title>
  <g stroke="null" id="svg_4">
   <path stroke="#000" fill="#00cbff" d="m1.04769,65.80758l0,0c0,-32.7418 26.06952,-59.28439 58.22806,-59.28439l26.46728,0l0,0l127.04299,0l238.2055,0c15.44302,0 30.25361,6.24604 41.1735,17.36405c10.91983,11.11799 17.05456,26.19721 17.05456,41.92033l0,148.21098l0,0l0,88.92659l0,0c0,32.74194 -26.06952,59.28439 -58.22806,59.28439l-238.2055,0l-165.96589,150.74647l38.92304,-150.74647l-26.46728,0c-32.15849,0 -58.22806,-26.54245 -58.22806,-59.28439l0,0l0,-88.92659l0,0l0,-148.21098l-0.00013,0z" id="svg_2"/>
   <path stroke="#000" fill="#4c4c4c" d="m77.50447,117.10879l0,0c0,-20.36385 18.76219,-36.87201 41.90648,-36.87201l19.04844,0l0,0l91.43245,0l171.43585,0c11.11434,0 21.77347,3.88473 29.63245,10.79954c7.85894,6.91481 12.27403,16.29334 12.27403,26.07243l0,92.18l0,0l0,55.308l0,0c0,20.36385 -18.76219,36.87201 -41.90648,36.87201l-171.43585,0l-119.4452,93.75691l28.01275,-93.75691l-19.04844,0c-23.1443,0 -41.90648,-16.50815 -41.90648,-36.87201l0,0l0,-55.308l0,0l0,-92.18l0,0.00003z" id="svg_3" stroke-width="0"/>
  </g>
 </g>

</svg>